#!OML:ASF F:\VICON\USERDATA\INSTALL\rory3\rory3.ASF
:FULLY-SPECIFIED
:DEGREES
498
root 1.84117 16.5803 5.46028 30.7139 51.2576 -335.665
lowerback -10.8321 -6.31304 -13.9845
upperback -7.31389 -6.81607 -4.71738
thorax -0.770428 -2.92296 2.00448
lowerneck -13.2149 -10.3875 -8.29905
upperneck 36.1154 -16.6607 9.47448
head 16.9595 -6.70079 2.4819
rclavicle 1.22849e-013 6.91771e-014
rhumerus 293.11 -59.7776 -314.003
rradius 12.6245
rwrist 79.3915
rhand 4.19223 0.149701
rfingers 7.12502
rthumb 29.5992 -27.5094
lclavicle 1.22849e-013 6.91771e-014
lhumerus -9.88781 0.25073 15.5593
lradius 18.2047
lwrist -49.7171
lhand -5.55502 24.8876
lfingers 7.12502
lthumb 20.2601 53.851
rfemur -34.1834 -2.00597 377.283
rtibia 44.2024
rfoot 152.212 156.88
rtoes 31.2051
lfemur -6.8625 -17.5916 22.3465
ltibia 39.7026
lfoot -205.193 -141.808
ltoes 49.4095
499
root 1.79355 16.4171 5.47761 28.5245 49.0774 -338.043
lowerback -10.3005 -5.77247 -12.6465
upperback -6.71788 -6.31348 -4.66764
thorax -0.583197 -2.7676 1.44779
lowerneck -15.3888 -10.1459 -8.06428
upperneck 36.1019 -16.3414 9.6065
head 17.4437 -6.43582 2.45713
rclavicle -5.65045e-014 8.3092e-014
rhumerus 296.829 -59.4786 -319.933
rradius 12.4037
rwrist 75.7875
rhand 4.02218 -0.101501
rfingers 7.12502
rthumb 29.4369 -27.7893
lclavicle -5.65045e-014 8.3092e-014
lhumerus -8.89754 4.09961 17.5706
lradius 17.8874
lwrist -52.1082
lhand -5.63416 24.2857
lfingers 7.12502
lthumb 20.184 53.2571
rfemur -35.51 -0.65004 378.359
rtibia 46.2514
rfoot 151.693 157.401
rtoes 30.3891
lfemur -7.7074 -17.3078 22.0736
ltibia 39.6829
lfoot -207.775 -141.849
ltoes 48.275
500
root 1.75362 16.2847 5.4719 26.2493 46.8966 -340.477
lowerback -9.11308 -5.15069 -10.8147
upperback -6.75981 -5.88288 -4.80173
thorax -1.48113 -2.58922 0.498677
lowerneck -15.6328 -9.72009 -7.49695
upperneck 35.7785 -15.8967 9.80062
head 17.2284 -6.16423 2.52915
rclavicle 9.03476e-014 2.22639e-014
rhumerus 295.864 -60.2027 -320.476
rradius 12.2381
rwrist 76.1199
rhand 3.63123 0.45278
rfingers 7.12502
rthumb 29.0636 -27.3
lclavicle 9.03476e-014 2.22639e-014
lhumerus -8.23721 6.18912 19.4255
lradius 17.7564
lwrist -53.9409
lhand -6.13455 24.0217
lfingers 7.12502
lthumb 19.703 53.0431
rfemur -36.9271 0.35489 379.608
rtibia 48.4916
rfoot 151.912 158.253
rtoes 29.5023
lfemur -8.78948 -16.671 21.8396
ltibia 40.0415
lfoot -200.382 -134.666
ltoes 47.4875
501
root 1.73619 16.1585 5.44995 23.8245 44.7454 -342.921
lowerback -8.02609 -4.59501 -8.896
upperback -6.63544 -5.46164 -4.89149
thorax -2.13199 -2.44346 -0.496693
lowerneck -15.5784 -9.20014 -6.79312
upperneck 35.2855 -15.3771 10.1014
head 16.8447 -5.84864 2.6476
rclavicle 4.47266e-014 2.62396e-014
rhumerus 280.294 -64.3028 -304.919
rradius 12.1888
rwrist 84.5431
rhand 2.98129 1.79108
rfingers 7.12502
rthumb 28.4427 -26.0671
lclavicle 4.47266e-014 2.62396e-014
lhumerus -7.61421 8.53436 21.4262
lradius 17.6539
lwrist -55.8982
lhand -6.89071 23.3835
lfingers 7.12502
lthumb 18.9759 52.4779
rfemur -37.9527 1.23648 380.925
rtibia 50.6835
rfoot 151.935 159.499
rtoes 28.0923
lfemur -9.96454 -16.1342 21.5815
ltibia 40.7836
lfoot -213.036 -144.665
ltoes 48.6135
502
root 1.7244 16.0202 5.429 22.0908 42.3989 -344.726
lowerback -7.63525 -4.12723 -8.03121
upperback -6.30188 -4.94061 -4.84868
thorax -2.07676 -2.23203 -0.860928
lowerneck -15.4496 -8.78135 -6.30086
upperneck 34.7 -14.9604 10.4808
head 16.4518 -5.59855 2.80694
rclavicle 4.95471e-014 2.06736e-014
rhumerus 298.779 -60.2353 -327.714
rradius 12.0446
rwrist 73.9113
rhand 2.40922 1.57671
rfingers 7.12502
rthumb 27.8959 -26.3716
lclavicle 4.95471e-014 2.06736e-014
lhumerus -6.72366 11.1839 24.0457
lradius 17.6027
lwrist -58
lhand -7.51306 22.8277
lfingers 7.12502
lthumb 18.3773 51.9796
rfemur -39.0326 2.16271 381.836
rtibia 52.6758
rfoot 151.803 160.958
rtoes 27.5883
lfemur -11.5022 -15.8979 20.9158
ltibia 41.7699
lfoot -207.486 -140.876
ltoes 46.5008
503
root 1.72432 15.9011 5.40037 20.4136 40.4344 -346.718
lowerback -7.51799 -3.76237 -6.81441
upperback -5.80845 -4.52692 -4.58209
thorax -1.69366 -2.0898 -1.22357
lowerneck -15.2602 -8.45622 -6.19544
upperneck 33.945 -14.5785 10.9616
head 16.0224 -5.41021 3.0576
rclavicle 4.98701e-014 -7.95139e-016
rhumerus 299.168 -60.921 -329.862
rradius 11.8627
rwrist 74.5472
rhand 1.04301 2.85605
rfingers 7.12502
rthumb 26.589 -25.2973
lclavicle 4.98701e-014 -7.95139e-016
lhumerus -5.8511 12.401 27.0094
lradius 17.6864
lwrist -58.7847
lhand -7.80407 22.9025
lfingers 7.12502
lthumb 18.0974 52.0806
rfemur -39.82 2.88409 383.078
rtibia 54.1925
rfoot 151.588 162.245
rtoes 28.6341
lfemur -13.5051 -15.9472 20.7034
ltibia 42.777
lfoot -214.398 -147.022
ltoes 49.8927
504
root 1.72312 15.8331 5.3812 19.3421 38.5172 -348.048
lowerback -6.39629 -3.3369 -5.28892
upperback -6.12877 -4.18972 -4.71463
thorax -2.76616 -1.95796 -2.09825
lowerneck -14.5636 -8.15944 -6.13916
upperneck 33.8245 -14.2731 11.3065
head 15.7923 -5.27081 3.28103
rclavicle -4.79071e-014 4.6118e-014
rhumerus 292.058 -63.066 -323.362
rradius 11.6391
rwrist 80.7166
rhand 0.105543 4.19584
rfingers 7.12502
rthumb 25.6915 -24.0904
lclavicle -4.79071e-014 4.6118e-014
lhumerus -5.32109 10.5351 29.7396
lradius 17.8712
lwrist -58.057
lhand -7.90655 23.3782
lfingers 7.12502
lthumb 17.9988 52.5654
rfemur -40.2599 3.84252 383.848
rtibia 55.1392
rfoot 151.227 162.849
rtoes 28.5068
lfemur -15.7551 -16.2479 20.0074
ltibia 43.5238
lfoot -214.917 -148.813
ltoes 50.1789
505
root 1.70391 15.7716 5.38125 18.4492 36.5061 -349.456
lowerback -7.17318 -3.52933 -4.98193
upperback -4.86402 -4.33704 -3.83455
thorax -0.959579 -2.07739 -1.44865
lowerneck -16.7026 -7.53026 -6.28919
upperneck 33.4458 -13.119 11.1404
head 15.9539 -4.76676 3.38012
rclavicle -8.87077e-015 -5.00937e-014
rhumerus 270.95 -69.164 -302.023
rradius 11.5682
rwrist 91.4334
rhand -0.748413 5.72302
rfingers 7.12502
rthumb 24.8733 -22.6788
lclavicle -8.87077e-015 -5.00937e-014
lhumerus -4.52239 12.3825 33.0136
lradius 17.8349
lwrist -57.85
lhand -8.30894 23.5342
lfingers 7.12502
lthumb 17.6116 52.7565
rfemur -40.7004 4.99725 384.813
rtibia 55.5725
rfoot 151.161 163.243
rtoes 28.2026
lfemur -18.0306 -16.2159 19.6083
ltibia 43.8802
lfoot -213.556 -149.727
ltoes 50.082
506
root 1.686 15.7327 5.3932 17.7828 34.522 -350.438
lowerback -6.78772 -3.38797 -4.58236
upperback -4.63147 -4.20293 -3.51244
thorax -0.932614 -2.02325 -1.31061
lowerneck -17.2099 -7.04813 -6.14316
upperneck 33.415 -12.3614 10.9794
head 15.9291 -4.44085 3.42338
rclavicle 4.18698e-014 1.43125e-014
rhumerus 259.258 -70.2101 -291.168
rradius 11.5731
rwrist 96.8689
rhand -1.63066 6.65689
rfingers 7.12502
rthumb 24.0276 -21.8591
lclavicle 4.18698e-014 1.43125e-014
lhumerus -3.51308 11.7877 36.0862
lradius 17.7877
lwrist -57.1414
lhand -8.47645 22.9472
lfingers 7.12502
lthumb 17.4504 52.184
rfemur -40.7882 5.26887 385.585
rtibia 55.5689
rfoot 151.283 164.497
rtoes 28.6056
lfemur -20.2562 -16.2024 18.9157
ltibia 43.8584
lfoot -211.015 -149.613
ltoes 49.3047
507
root 1.66134 15.7163 5.42705 17.0001 32.8506 -351.365
lowerback -5.68902 -2.86765 -4.03034
upperback -5.17085 -3.64926 -3.69266
thorax -2.15225 -1.74456 -1.69342
lowerneck -15.2361 -6.89438 -5.4378
upperneck 32.8721 -12.3371 11.0335
head 15.1453 -4.4316 3.35775
rclavicle -1.11487e-013 -1.78906e-014
rhumerus 264.358 -68.9515 -297.753
rradius 11.4216
rwrist 96.6702
rhand -2.20558 6.9011
rfingers 7.12502
rthumb 23.4762 -21.6866
lclavicle -1.11487e-013 -1.78906e-014
lhumerus -2.03617 9.96153 39.0797
lradius 17.3624
lwrist -57.4912
lhand -8.60423 21.9146
lfingers 7.12502
lthumb 17.3274 51.1622
rfemur -40.325 5.22815 386.486
rtibia 55.2261
rfoot 151.248 165.938
rtoes 29.1123
lfemur -22.455 -16.1436 18.3068
ltibia 43.5389
lfoot -211.106 -151.159
ltoes 49.4454
508
root 1.63692 15.716 5.46803 16.4722 31.2845 -351.951
lowerback -4.86105 -2.67144 -3.80952
upperback -5.37106 -3.46825 -3.64996
thorax -2.83122 -1.6532 -1.71919
lowerneck -14.1186 -6.70377 -4.90472
upperneck 32.236 -12.0968 10.9103
head 14.5083 -4.35182 3.26291
rclavicle 6.38906e-014 1.59028e-014
rhumerus 266.277 -68.7578 -301.008
rradius 11.1892
rwrist 96.9961
rhand -2.65282 6.97341
rfingers 7.12502
rthumb 23.0471 -21.6685
lclavicle 6.38906e-014 1.59028e-014
lhumerus -0.950223 8.14312 41.9586
lradius 17.2649
lwrist -57.1915
lhand -8.3751 21.3755
lfingers 7.12502
lthumb 17.5479 50.6035
rfemur -39.7455 5.04319 387.119
rtibia 54.6887
rfoot 151.23 167.206
rtoes 28.5962
lfemur -24.7129 -15.9552 17.4132
ltibia 43.1226
lfoot -213.781 -155.628
ltoes 50.5352
509
root 1.62137 15.7214 5.51015 16.052 29.9328 -352.5
lowerback -4.55413 -2.68646 -3.6158
upperback -5.22918 -3.51055 -3.45192
thorax -2.85182 -1.68068 -1.61079
lowerneck -14.1834 -6.29116 -5.24128
upperneck 32.1656 -11.5641 11.4382
head 14.5003 -4.10188 3.63427
rclavicle 5.77656e-014 5.4467e-014
rhumerus 264.04 -69.2367 -299.929
rradius 11.0256
rwrist 98.3818
rhand -3.25112 6.85988
rfingers 7.12502
rthumb 22.4729 -21.8525
lclavicle 5.77656e-014 5.4467e-014
lhumerus -0.0110647 4.9637 44.556
lradius 17.7804
lwrist -55.15
lhand -7.9456 21.5988
lfingers 7.12502
lthumb 17.9612 50.7894
rfemur -39.1483 4.95142 387.691
rtibia 54.0818
rfoot 151.347 168.201
rtoes 28.2753
lfemur -27.1077 -15.6881 16.5817
ltibia 42.7259
lfoot -215.189 -160.29
ltoes 51.0279
510
root 1.61073 15.7306 5.54685 15.8667 28.63 -353.423
lowerback -4.51383 -2.67247 -3.01334
upperback -5.40004 -3.51691 -3.21178
thorax -3.07034 -1.69936 -1.69122
lowerneck -13.6436 -5.94402 -5.07042
upperneck 32.0775 -11.1353 11.5583
head 14.2832 -3.90995 3.739
rclavicle 8.55426e-014 6.75868e-015
rhumerus 264.391 -69.3342 -301.499
rradius 10.8438
rwrist 99.0568
rhand -4.18148 7.20162
rfingers 7.12502
rthumb 21.5797 -21.616
lclavicle 8.55426e-014 6.75868e-015
lhumerus 1.97057 11.6561 48.4558
lradius 15.8492
lwrist -63.5677
lhand -9.48691 19.7854
lfingers 7.12502
lthumb 16.4777 49.1056
rfemur -38.9737 5.48373 388.494
rtibia 53.4704
rfoot 151.622 168.7
rtoes 27.9943
lfemur -30.0241 -15.2267 16.2322
ltibia 42.4779
lfoot -215.106 -163.315
ltoes 51.0401
511
root 1.60619 15.7381 5.5695 16.29 26.9282 -354.233
lowerback -4.94678 -2.51994 -2.42867
upperback -5.47536 -3.30861 -2.99547
thorax -2.92244 -1.6144 -1.80709
lowerneck -13.9054 -5.7264 -4.86803
upperneck 31.9743 -10.8858 11.6251
head 14.2587 -3.7677 3.76392
rclavicle 4.25648e-014 3.22031e-014
rhumerus 255.544 -69.4507 -293.334
rradius 10.7739
rwrist 102.499
rhand -5.29132 8.10229
rfingers 7.12502
rthumb 20.5135 -20.834
lclavicle 4.25648e-014 3.22031e-014
lhumerus 2.07926 0.0773442 49.5365
lradius 18.2492
lwrist -53.7054
lhand -8.96201 21.4095
lfingers 7.12502
lthumb 16.983 50.687
rfemur -39.5132 6.61282 388.991
rtibia 52.9576
rfoot 152.142 168.97
rtoes 27.5668
lfemur -33.3818 -15.3174 15.9634
ltibia 42.4395
lfoot -215.776 -167.921
ltoes 51.174
512
root 1.61374 15.7428 5.59178 16.8452 25.1288 -354.966
lowerback -5.4715 -2.36253 -1.92719
upperback -5.65759 -3.09587 -2.78857
thorax -2.82978 -1.52308 -1.88684
lowerneck -13.9116 -5.4594 -4.52094
upperneck 31.9215 -10.5586 11.538
head 14.1685 -3.60167 3.71989
rclavicle 3.18801e-014 -4.37326e-015
rhumerus 245.724 -68.8768 -283.998
rradius 10.7913
rwrist 105.936
rhand -5.80188 8.99235
rfingers 7.12502
rthumb 20.0228 -19.996
lclavicle 3.18801e-014 -4.37326e-015
lhumerus 3.51872 0.947108 52.5665
lradius 17.57
lwrist -56.0663
lhand -9.90579 21.2881
lfingers 7.12502
lthumb 16.0744 50.6414
rfemur -40.1421 7.85643 389.356
rtibia 52.5016
rfoot 152.554 169.107
rtoes 27.4991
lfemur -36.8959 -16.0795 15.9396
ltibia 42.6235
lfoot -216.21 -172.089
ltoes 50.6457
